<?xml version="1.0" ?>
<!-- Uploaded to: SVG Repo, www.svgrepo.com, Generator: SVG Repo Mixer Tools -->
<svg width="800px" height="800px" viewBox="0 0 128 128" xmlns="http://www.w3.org/2000/svg">
<title/>
<circle cx="63.5" cy="63.5" r="56" style="fill: #fff4de"/>
<g>
<circle cx="63.5" cy="63.5" r="56" style="fill: #fff9de"/>
<path d="M117.46,78.52A56,56,0,1,1,44,11a56,56,0,0,0,73.42,67.54Z" style="fill: #ffe082"/>
<ellipse cx="65.6" cy="28.21" rx="6.94" ry="8.87" style="fill: #ffeea3" transform="translate(1.86 60.4) rotate(-50.06)"/>
<ellipse cx="55.4" cy="101.98" rx="9.07" ry="11.58" style="fill: #ffeea3" transform="translate(-59.71 116.76) rotate(-68.8)"/>
<ellipse cx="57.73" cy="66.42" rx="6.03" ry="7.71" style="fill: #ffeea3" transform="translate(-30.26 68.05) rotate(-50.06)"/>
<ellipse cx="24.73" cy="72.42" rx="6.03" ry="7.71" style="fill: #ffeea3" transform="translate(-21.13 11.16) rotate(-17.97)"/>
<ellipse cx="88.55" cy="90.71" rx="4.62" ry="5.9" style="fill: #ffeea3" transform="translate(-25.02 147.02) rotate(-72.07)"/>
<ellipse cx="88.67" cy="59.11" rx="5.13" ry="6.56" style="fill: #ffeea3" transform="translate(-13.58 89.16) rotate(-50.06)"/>
<ellipse cx="97.67" cy="36.11" rx="5.13" ry="6.56" style="fill: #ffeea3" transform="translate(1.42 75.86) rotate(-42.73)"/>
</g>
<path d="M52,55.08,52,55l1-17,7,5h8l7-5,1,17.1A26.9,26.9,0,0,0,90,38.37h0c10.1-4.88,22.93-6,34-5-10,1.7-11.61,14.9-1.73,18.31C109,50.14,100.21,64.46,108.6,74.29c-12.93-.64-23.23,10.4-20.24,22.46C72.12,80.68,64,103,64,103S59.61,90.93,50.82,90.93c-3.16,0-6.88,1.56-11.18,5.82,3-12.06-7.31-23.1-20.24-22.46,8.39-9.83-.35-24.15-13.67-22.67C15.61,48.21,14,35,4,33.31c11.09-.91,23.92.17,34,5h0A26.89,26.89,0,0,0,52,55.08Z" style="fill: #404b4f"/>
<path d="M52,55.08,52,55l1-17,7,5h8l7-5,1,17.1A26.9,26.9,0,0,0,90,38.37h0c10.1-4.88,22.93-6,34-5-10,1.7-11.61,14.9-1.73,18.31C109,50.14,100.21,64.46,108.6,74.29c-12.93-.64-23.23,10.4-20.24,22.46C72.12,80.68,64,103,64,103S59.61,90.93,50.82,90.93c-3.16,0-6.88,1.56-11.18,5.82,3-12.06-7.31-23.1-20.24-22.46,8.39-9.83-.35-24.15-13.67-22.67C15.61,48.21,14,35,4,33.31c11.09-.91,23.92.17,34,5h0A26.89,26.89,0,0,0,52,55.08Z" style="fill: #5b6584"/>
<path d="M37.9,38.31C27.82,33.47,15,32.4,4,33.31,14,35,15.61,48.21,5.73,51.62,19,50.14,27.79,64.46,19.4,74.29c12.93-.64,23.23,10.4,20.24,22.46C48.48,80.54,44.39,55.5,37.9,38.31Z" style="fill: #677493"/>
<path d="M90.1,38.31c10.08-4.83,22.86-5.9,33.9-5-10,1.7-11.61,14.9-1.73,18.31C109,50.14,100.21,64.46,108.6,74.29c-12.93-.64-23.23,10.4-20.24,22.46C79.52,80.54,83.61,55.5,90.1,38.31Z" style="fill: #677493"/>
<path d="M20.11,73.4c4.41-2.13,17.65-10.57,17.6-35.12C36,39.81,26.73,47.51,7,51.53,19.2,51.06,27,63.94,20.11,73.4Z" style="fill: #677493"/>
<path d="M4,33.31C14,35,15.61,48.21,5.73,51.62c9-1,24.86-6.85,32-13.38C27.69,33.47,15,32.41,4,33.31Z" style="fill: #7685a5"/>
<path d="M107.89,73.4c-4.41-2.13-17.65-10.57-17.6-35.12,1.69,1.54,11,9.24,30.73,13.25C108.8,51.06,101,63.94,107.89,73.4Z" style="fill: #677493"/>
<path d="M124,33.31c-10,1.7-11.61,14.9-1.73,18.31-9-1-24.86-6.85-32-13.38C100.31,33.47,113,32.41,124,33.31Z" style="fill: #7685a5"/>
<path d="M66.12,58.88a3,3,0,1,1-4.24,0Z" style="fill: #31352e"/>
<path d="M63,52.5a3,3,0,1,1-3-3Z" style="fill: #31352e"/>
<path d="M68,49.5a3,3,0,1,1-3,3Z" style="fill: #31352e"/>
<path d="M124.5,36.27a3,3,0,0,0-.26-5.95,90.32,90.32,0,0,0-11.92-.18,59,59,0,0,0-91.46-6.4c-2.71,2.9,1.68,7,4.39,4.09a53,53,0,0,1,80.06,3,57.39,57.39,0,0,0-16.63,4.84,3,3,0,0,0-1.6,2A23.81,23.81,0,0,1,78.7,49.88C78,37.17,78.39,36.3,76.29,35.29s-3,.2-9.25,4.71H61c-6.31-4.51-7.2-5.69-9.25-4.71S50,37.38,49.3,49.88a24,24,0,0,1-8.43-12.41c-1.2-3.79-18.93-8.64-37.11-7.14a3,3,0,0,0-.26,5.95c6.84,1.16,8.28,10.09,1.25,12.51a3,3,0,0,0,1,5.82,59,59,0,1,0,117.12,5.5,3,3,0,0,0-3.19-2.8,3,3,0,0,0-2.8,3.19A53,53,0,1,1,11.73,55.19a11.8,11.8,0,0,1,6.73,5.64A9.91,9.91,0,0,1,18,71.18a3,3,0,0,0-1.84,3.76,3.68,3.68,0,0,0,3.4,2.35,17.34,17.34,0,0,1,14.28,6.12A14.11,14.11,0,0,1,37,94.5c-.35.57-.57.94-.61,1A3,3,0,0,0,39,100a4,4,0,0,0,3-1.39c3.79-3.67,7.23-5.19,10.2-4.54,4.73,1,8.08,7.54,9,9.95a3,3,0,0,0,5.64,0c.89-2.41,4.23-8.91,9-10,3-.65,6.42.88,10.22,4.56a3.26,3.26,0,0,0,5.6-3.13c0-.07-.25-.44-.61-1a14.1,14.1,0,0,1,3.18-11.09,17.32,17.32,0,0,1,14.28-6.12,4,4,0,0,0,3.71-2.35,3,3,0,0,0-1.91-3.79L109.9,71a9.9,9.9,0,0,1-.36-10.18,12.28,12.28,0,0,1,12.4-6.23,3,3,0,0,0,1.31-5.82c-3.12-1.08-4.84-3.5-4.59-6.49A6.67,6.67,0,0,1,124.5,36.27ZM18.13,51.73A76.72,76.72,0,0,0,31.2,46.26,3,3,0,1,0,28.35,41a72.12,72.12,0,0,1-13.55,5.5,12.15,12.15,0,0,0,.52-4.68,12.43,12.43,0,0,0-2-5.76c6.54.17,14.44,1.19,21.61,4.25-.4,13.35-5,21.17-9.31,25.6A16.18,16.18,0,0,0,23.76,58,17.59,17.59,0,0,0,18.13,51.73Zm67.5,35.32a46.56,46.56,0,0,0-7.84-7.6C74.6,77.1,71,81.92,74.22,84.28A34.74,34.74,0,0,1,78.39,88c-6.19-.58-11,3.32-14.39,8.5C60.64,91.3,55.8,87.4,49.61,88a34.83,34.83,0,0,1,4.17-3.7c3.19-2.36-.38-7.19-3.57-4.82a46.56,46.56,0,0,0-7.84,7.6,20.68,20.68,0,0,0-3.91-7.45,22.78,22.78,0,0,0-11-7.26c4.79-4,10.47-11.07,12.62-23.25a30.25,30.25,0,0,0,10.54,8.68,3,3,0,0,0,4-1.35c.49-1,.42-3.17,1-12.83C58.32,45.49,58.77,46,60,46c10.37,0,8.09.62,12.32-2.4.69,11.8.16,13.1,2.36,14.18a2.92,2.92,0,0,0,1.91.25c1.21-.24,7.12-3.33,11.54-9.26,2.1,12.32,7.78,19.5,12.6,23.51A21.9,21.9,0,0,0,85.63,87.05Zm18.61-29a16.21,16.21,0,0,0-1.9,7.49c-4.23-4.52-8.64-12.32-9-25.34A60.43,60.43,0,0,1,114.63,36a12.43,12.43,0,0,0-2,5.76,12.16,12.16,0,0,0,.49,4.58A71.78,71.78,0,0,1,100,41c-3.49-1.89-6.34,3.4-2.85,5.28A76.54,76.54,0,0,0,110,51.66,17.59,17.59,0,0,0,104.24,58Z" style="fill: #31352e"/>
<ellipse cx="64" cy="79" rx="6.25" ry="9" style="fill: #677493"/>
</svg>