<?xml version="1.0" ?>
<!-- Uploaded to: SVG Repo, www.svgrepo.com, Generator: SVG Repo Mixer Tools -->
<svg width="800px" height="800px" viewBox="0 0 64 64" xmlns="http://www.w3.org/2000/svg">
<g id="a"/>
<g id="b"/>
<g id="c"/>
<g id="d"/>
<g id="e"/>
<g id="f"/>
<g id="g"/>
<g id="h"/>
<g id="i"/>
<g id="j"/>
<g id="k"/>
<g id="l"/>
<g id="m"/>
<g id="n"/>
<g id="o"/>
<g id="p"/>
<g id="q">
<path d="M40.69,6.35c-.71,0-1.37,.33-1.8,.9l-6.9,9.15-4.29,15.82,4.29,25.4c.31,.01,.61-.09,.86-.28l25.28-21.12c.28-.24,.5-.53,.65-.87l-6.59-11.79,6.59-7.16c-.11-.32-.27-.62-.47-.89l-6.25-8.26c-.43-.56-1.09-.89-1.8-.89h-9.58Z" fill="#ffa6c5" id="r"/>
<path d="M13.73,6.35c-.71,0-1.37,.33-1.8,.89L5.68,15.5c-.2,.27-.36,.57-.47,.89l10.85,5.37-10.84,13.58c.15,.34,.37,.63,.64,.87l25.28,21.12c.25,.19,.55,.29,.86,.28V16.4l-6.9-9.15c-.42-.56-1.09-.9-1.8-.9H13.73Z" fill="#fd91ba" id="s"/>
<path d="M32,16.4H5.21c-.13,.36-.2,.74-.21,1.12v16.86c0,.34,.08,.67,.22,.97l26.78-18.95Z" fill="#ffa6c5" id="t"/>
<path d="M32,16.4l26.79,18.96c.14-.31,.21-.64,.21-.97V17.52c0-.38-.07-.76-.21-1.12h-26.79Z" fill="#ffd0e0" id="u"/>
<path d="M32,16.4L5.22,35.35h0c.15,.34,.37,.64,.64,.88l4.55,3.8,21.59-23.63Z" fill="#fc76a8" id="v"/>
<path d="M32,16.4l26.78,18.95h0c-.15,.34-.37,.64-.64,.88l-4.55,3.8-21.59-23.63Z" fill="#fd91ba" id="w"/>
<path d="M52.87,6.64c-.61-.81-1.58-1.29-2.6-1.29h-9.58c-1.01,0-1.98,.48-2.6,1.29l-6.1,8.09-6.1-8.09c-.61-.81-1.58-1.29-2.6-1.29H13.73c-1.01,0-1.98,.48-2.6,1.29L4.88,14.9c-.57,.75-.88,1.68-.88,2.62v16.86c0,1.01,.44,1.96,1.22,2.61l25.28,21.12c.43,.36,.97,.54,1.5,.54s1.07-.18,1.5-.54l25.28-21.12c.78-.65,1.22-1.6,1.22-2.61V17.52c0-.94-.31-1.87-.88-2.62l-6.25-8.26Zm-17.72,10.76h22.81s.04,.08,.04,.12v16.05l-22.86-16.17Zm4.55-9.55c.24-.31,.61-.5,1-.5h9.58c.39,0,.77,.19,1,.5l5.72,7.55h-22.98l5.69-7.55Zm-26.97,0c.24-.31,.61-.5,1-.5h9.58c.39,0,.76,.19,1,.5l5.69,7.55H7.01l5.72-7.55Zm-6.73,25.72V17.52s.04-.08,.04-.12H28.86L6,33.57Zm.64,2L31,18.33V55.92L6.64,35.57Zm26.36,20.35V18.33l24.36,17.24-24.36,20.36Z"/>
</g>
<g id="x"/>
<g id="y"/>
<g id="a`"/>
<g id="aa"/>
<g id="ab"/>
<g id="ac"/>
<g id="ad"/>
<g id="ae"/>
<g id="af"/>
<g id="ag"/>
<g id="ah"/>
<g id="ai"/>
<g id="aj"/>
<g id="ak"/>
<g id="al"/>
<g id="am"/>
<g id="an"/>
<g id="ao"/>
<g id="ap"/>
<g id="aq"/>
<g id="ar"/>
<g id="as"/>
<g id="at"/>
<g id="au"/>
<g id="av"/>
<g id="aw"/>
<g id="ax"/>
<g id="ay"/>
<g id="b`"/>
<g id="ba"/>
<g id="bb"/>
<g id="bc"/>
<g id="bd"/>
</svg>