<?xml version="1.0" ?>
<!-- Uploaded to: SVG Repo, www.svgrepo.com, Generator: SVG Repo Mixer Tools -->
<svg width="800px" height="800px" viewBox="0 0 64 64" xmlns="http://www.w3.org/2000/svg">
<g id="a"/>
<g id="b"/>
<g id="c"/>
<g id="d"/>
<g id="e"/>
<g id="f"/>
<g id="g">
<path d="M14.52,14.67c-.28,.14-.53,.35-.72,.61L5.58,26.81c-.18,.25-.31,.53-.41,.81l28.23,16.45,25.43-16.45c-.1-.29-.23-.56-.41-.81l-8.22-11.53c-.19-.26-.44-.47-.72-.61H14.52Z" fill="#f0f4f6" id="h"/>
<path d="M14.38,49.53l11.79-5.81,5.82-16.11H14.38l-3.42,10.52,3.42,11.4Z" fill="#0acffb" id="i"/>
<path d="M14.38,49.53V27.62H5.17c-.11,.32-.17,.66-.17,1v19.91c0,.55,.45,1,1,1H14.38Z" fill="#62d9fa" id="j"/>
<path d="M49.62,49.53l-6.25-11.65-11.37-10.26-2.34,15.16,2.34,6.75h17.62Z" fill="#0acffb" id="k"/>
<path d="M32,49.53V27.62L14.38,49.53h17.62Z" fill="#62d9fa" id="l"/>
<path d="M49.62,27.62l-3.51,10.8,3.51,11.11h8.38c.55,0,1-.45,1-1V28.62c0-.34-.06-.68-.17-1h-9.22Z" fill="#0acffb" id="m"/>
<path d="M40.81,27.62h-8.81l17.62,21.91V27.62h-8.81Z" fill="#62d9fa" id="n"/>
<path d="M32,14.46l8.81,13.16,8.67-12.95c-.27-.13-.56-.21-.86-.21h-16.62Z" fill="#e2eef2" id="o"/>
<path d="M15.38,14.46c-.3,0-.6,.07-.86,.21l8.67,12.95,8.81-13.16H15.38Z" fill="#e2eef2" id="p"/>
<path d="M32,27.62l-17.62,14.95v6.97l17.62-21.91Z" fill="#00bff8" id="q"/>
<path d="M14.38,42.57l-8.21,6.96H14.38v-6.96Z" fill="#0acffb" id="r"/>
<path d="M51.01,14.7c-.55-.77-1.45-1.23-2.4-1.23H15.38c-.95,0-1.84,.46-2.39,1.23h0L4.77,26.23c-.5,.7-.77,1.53-.77,2.4v19.91c0,1.1,.9,2,2,2H58c1.1,0,2-.9,2-2V28.62c0-.86-.27-1.69-.77-2.4l-8.22-11.53Zm-17.14,.77h13.87l-6.94,10.36-6.94-10.36Zm5.06,11.16h-13.87l6.93-10.36,6.93,10.36Zm-15.74-.8l-6.94-10.36h13.87l-6.94,10.36Zm6.72,2.8l-14.53,18.07V28.62h14.53Zm1.09,1.84v18.07h-14.53l14.53-18.07Zm2,0l14.53,18.07h-14.53V30.46Zm15.62,16.23l-14.53-18.07h14.53v18.07Zm-5.94-20.07l6.96-10.4,7.42,10.4h-14.38ZM14.36,16.22l6.96,10.4H6.94l7.42-10.4ZM6,28.62h7.38v19.91H6V28.62Zm44.62,19.91V28.62h7.38v19.91h-7.38Z"/>
</g>
<g id="s"/>
<g id="t"/>
<g id="u"/>
<g id="v"/>
<g id="w"/>
<g id="x"/>
<g id="y"/>
<g id="a`"/>
<g id="aa"/>
<g id="ab"/>
<g id="ac"/>
<g id="ad"/>
<g id="ae"/>
<g id="af"/>
<g id="ag"/>
<g id="ah"/>
<g id="ai"/>
<g id="aj"/>
<g id="ak"/>
<g id="al"/>
<g id="am"/>
<g id="an"/>
<g id="ao"/>
<g id="ap"/>
<g id="aq"/>
<g id="ar"/>
<g id="as"/>
<g id="at"/>
<g id="au"/>
<g id="av"/>
<g id="aw"/>
<g id="ax"/>
<g id="ay"/>
<g id="b`"/>
<g id="ba"/>
<g id="bb"/>
<g id="bc"/>
<g id="bd"/>
<g id="be"/>
<g id="bf"/>
<g id="bg"/>
<g id="bh"/>
<g id="bi"/>
</svg>